<mxfile host="app.diagrams.net" modified="2023-04-18T10:28:50.868Z" agent="Mozilla/5.0 (Windows NT 10.0; Win64; x64) AppleWebKit/537.36 (KHTML, like Gecko) Chrome/110.0.0.0 YaBrowser/23.3.1.895 Yowser/2.5 Safari/537.36" version="21.1.5" etag="vWnU4_cs5Dp7lBBoGGUp" type="github">
  <diagram name="Страница 1" id="VbI8tvu7fp2cQtfUgSfx">
    <mxGraphModel>
      <root>
        <mxCell id="0" />
        <mxCell id="1" parent="0" />
      </root>
    </mxGraphModel>
  </diagram>
</mxfile>
